<svg width="10" height="12" viewBox="0 0 10 12" fill="none" xmlns="http://www.w3.org/2000/svg">
<g clip-path="url(#clip0_387_395)">
<path d="M8.48274 0.933856C7.93844 0.302783 6.95453 0.0322266 5.69582 0.0322266H2.0427C1.91816 0.0322313 1.79771 0.0774268 1.703 0.159688C1.60829 0.241948 1.54554 0.355879 1.52602 0.480995L0.00492383 10.2943C-0.0253105 10.4878 0.121994 10.663 0.314807 10.663H2.57012L3.13653 7.00852L3.11895 7.12296C3.1593 6.86464 3.37649 6.67411 3.63367 6.67411H4.70539C6.81078 6.67411 8.45934 5.80423 8.9409 3.28784C8.9552 3.21342 8.96758 3.14098 8.97828 3.07021C8.9175 3.03747 8.9175 3.03747 8.97828 3.07021C9.12168 2.14013 8.97731 1.50703 8.48274 0.933856Z" fill="#27346A"/>
<path d="M3.99949 2.73517C4.06115 2.7053 4.12859 2.68983 4.19688 2.68987H7.06086C7.4 2.68987 7.71633 2.71232 8.00539 2.75964C8.08628 2.77276 8.16675 2.78843 8.24668 2.80661C8.35998 2.83204 8.47196 2.86317 8.58223 2.89987C8.72434 2.94815 8.85668 3.00437 8.97832 3.07021C9.12168 2.13978 8.97731 1.50703 8.48274 0.933856C7.93813 0.302783 6.95453 0.0322266 5.69582 0.0322266H2.04238C1.78516 0.0322266 1.56633 0.222717 1.52602 0.480995L0.00492404 10.2939C-0.0253103 10.4877 0.121994 10.6627 0.314494 10.6627H2.57012L3.74524 3.08245C3.75679 3.00794 3.78597 2.93741 3.83026 2.87691C3.87455 2.81642 3.93263 2.76777 3.99949 2.73517Z" fill="#27346A"/>
<path d="M8.94112 3.28794C8.45956 5.80397 6.81104 6.67421 4.70561 6.67421H3.63358C3.3764 6.67421 3.15917 6.86474 3.11921 7.12305L2.41456 11.667C2.38823 11.8363 2.51698 11.9898 2.68542 11.9898H4.58659C4.6955 11.9897 4.80082 11.9502 4.88361 11.8782C4.96641 11.8063 5.02125 11.7066 5.03827 11.5972L5.05679 11.4986L5.41511 9.1886L5.43819 9.06093C5.45521 8.95152 5.51004 8.85187 5.59283 8.77991C5.67562 8.70795 5.78093 8.66839 5.88983 8.66835H6.17436C8.01604 8.66835 9.45811 7.90727 9.87952 5.7061C10.0554 4.78623 9.9644 4.01823 9.49909 3.47879C9.35796 3.3154 9.18268 3.18046 8.97851 3.07031C8.96745 3.14144 8.95546 3.21352 8.94112 3.28794Z" fill="#2790C3"/>
<path d="M8.47467 2.86593C8.39958 2.84363 8.32378 2.82388 8.2474 2.80672C8.16743 2.78884 8.08696 2.77328 8.00611 2.76008C7.71674 2.71243 7.40064 2.68994 7.06119 2.68994H4.19756C4.12922 2.68978 4.06173 2.7054 4.00018 2.7356C3.93323 2.7681 3.87509 2.81672 3.83078 2.87723C3.78647 2.93774 3.75733 3.00833 3.74588 3.08288L3.13721 7.00863L3.11963 7.12307C3.15967 6.86475 3.37686 6.67422 3.63408 6.67422H4.70611C6.8115 6.67422 8.46002 5.80434 8.94158 3.28796C8.95592 3.21353 8.96795 3.14141 8.979 3.07033C8.85705 3.00484 8.72506 2.94826 8.58291 2.9003C8.54704 2.8882 8.51097 2.87675 8.47471 2.86593" fill="#1F264F"/>
</g>
<defs>
<clipPath id="clip0_387_395">
<rect width="10" height="12" fill="white"/>
</clipPath>
</defs>
</svg>
